<svg version="1.1" id="Logo_Liq" xmlns="http://www.w3.org/2000/svg" x="0" y="0" viewBox="0 0 197.4 115.2" xml:space="preserve"><style>.st0{fill:#562e2d}</style><g id="Liq"><g id="Brown_elements"><path class="st0" d="M183 8.7V4.4h-1.4v-.8h3.8v.8H184v4.3zm7.1 0V4.8L189 8.7h-.9L187 4.8v3.9h-.9V3.6h1.3l1.1 3.8h.1l1.1-3.8h1.4v5.1z" id="TM"/><g id="Liq-2"><path class="st0" d="M104.8 82.6h-.7c-3.7-.1-3.6-.7-3.7-5.8V33.1c0-1.2-1.1-2-2.2-1.7-2.4.7-7.2 2.4-12.9 3-4.9.6-9.7.8-12.5.8-1 0-1.8.8-1.8 1.8v2.8c0 1 .8 1.8 1.8 1.8h1.8c4.7.2 4.4.8 4.2 7.3V77c0 4.8.1 5.8-2.5 5.8h-1.6c-1 0-1.8.8-1.8 1.8V89c0 1 .8 1.8 1.8 1.8h30c1 0 1.8-.8 1.8-1.8v-4.4c.1-1.2-.7-2-1.7-2zM65.1 61.5l-4.4.7c-.9 0-1.6.7-1.7 1.6-.5 5.1-1.2 8.8-2.3 11.5C54 82 49 82.5 38.9 82.5h-5.8c-1 0-1.7-.8-1.7-1.7V16.9c-.1-6.2.2-7 4.9-7h2.5c1 0 1.7-.8 1.7-1.7V3.9c0-1-.8-1.7-1.7-1.7H1.7C.8 2.2 0 3 0 3.9v4.2c0 1 .8 1.7 1.7 1.7h2c2.8 0 4 .4 4.5 2.9.2 1 .3 2.4.3 4.2v58.5c0 5.8-.4 6.9-3.9 7H1.8c-1 0-1.7.8-1.7 1.7v4.7c0 1 .8 1.7 1.7 1.7h63.4c1 0 1.7-.8 1.7-1.7V63.2c0-1-.8-1.7-1.8-1.7zm132.1 31.4c-.1-.8-.8-1.4-1.6-1.3l-3.1.1c-.9 0-1.6.7-1.6 1.6 0 .2-.1.8-.1 1.3 0 3.8-3.1 7.9-12.5 7.9-8.6 0-17.8-3.8-24.9-7.7-.8-.4-1.5-.8-2.2-1.2h.5c16.3 0 28.5-6.6 35.8-17.6 3.7-5.5 5.9-11.9 7.1-18.5 1.2-7.4 1.2-15.1-.2-22.4-1.2-5.9-3.4-11.6-6.8-16.6-2.5-3.7-5.5-6.7-8.7-9.2-3.5-2.7-7.3-4.6-11.2-5.8-2.4-.8-4.8-1.3-7.3-1.5-1.6-.1-4-.4-4.4 1.4-.5 2.1 0 4.2 1.4 5.9 1 1.2 2.5 1.7 3.8 2.5 1.6 1 3 2.4 3.9 4.1 3.9 6.5 4 14.8 4.2 22.2.1 2.4.1 4.9.1 7.3v1.3c0 10.5-1 18-2.6 23.3-1.8 5.6-4.3 8.8-7.4 10.5-2.1 1.2-4.5 1.6-7.1 1.6-3 0-5.6-.9-7.8-2.4-4.8-3.4-7.6-10.1-9.1-17.4-1.5-7.2-1.6-14.6-1.4-21.9.2-5.9.6-11.9 1.6-17.7.7-3.9 1.7-7.8 3.4-11.3 1.4-2.9 3.4-5.4 5.8-7.4.9-.8 3.2-1.8 3.8-2.8.7-1.2-1.3-1.1-2.1-1.1-12 .9-35.6 10-38.3 40.7-.2 1.9-.3 3.9-.3 5.9 0 22.1 10.4 35.7 23.5 42.2-6.4 1.5-12.9 6.3-12.9 14.6 0 4.9 3.3 9.8 8.4 9.8 4.1 0 7.7-3 7.7-7.7 0-6.1-6.1-4.9-7.7-3.7 1.1-4.5 4.9-6 8-6 11.9 0 14.7 19.3 36.9 19.3 15.5 0 25.6-10.6 25.6-20.2 0-1.2-.2-2.1-.2-2.1z"/><circle class="st0" cx="88.5" cy="14.5" r="12.7"/></g><path class="st0" d="M151.6 4c.1-.1.4 0 .3.2-.7 4.6 1.9 8.2 4.6 11.8 1.2 1.6 2.4 3.3 3 5.2 1.1 3.7-.2 8.2-3.3 10.5-1.4 1-3 1.6-4.7 1.7-3.7.3-7.3-1.8-9-5.1-1.9-3.8-1.6-8.8.2-12.6 2.2-4.3 5.1-8.6 8.9-11.7z" id="Drop"/></g><g id="Golden_elements"><linearGradient id="SVGID_1_" gradientUnits="userSpaceOnUse" x1="75.87" y1="110.391" x2="96.45" y2="110.391" gradientTransform="matrix(1 0 0 -1 0 118)"><stop offset=".09" stop-color="#ffe597"/><stop offset="1" stop-color="#dab47b"/></linearGradient><path d="M88.5 1.8c-6.6 0-12.1 5.1-12.7 11.5 4.9.5 5.2-4.5 10.2-5.8 4.9-1.3 8.1 1.4 10.4-2.9-2.1-1.7-4.9-2.8-7.9-2.8z" fill="url(#SVGID_1_)"/><linearGradient id="SVGID_00000121253848070119270590000013796929372013091743_" gradientUnits="userSpaceOnUse" x1="11.14" y1="102.103" x2="20.186" y2="118.236" gradientTransform="matrix(1 0 0 -1 0 118)"><stop offset="0" stop-color="#bb7c11"/><stop offset=".81" stop-color="#ffe597"/></linearGradient><path d="M24.5 2.2H6c.4 1.7.7 3.4 2.6 4.3 2.6 1.2 4-1.3 6.5-1.3 2.7 0 3.4 2.9 3.2 4.5-.4 3.9-1.5 3.8-1.7 6.2-.3 2.4 1.1 4.6 3.5 4.4 2.9-.2 3.1-4.1 3.1-4.5S23 12.9 23 12c-.1-.9-1.1-8.1 1.5-9.8z" fill="url(#SVGID_00000121253848070119270590000013796929372013091743_)"/><linearGradient id="SVGID_00000124154117152553863220000017359325242175623064_" gradientUnits="userSpaceOnUse" x1="135.844" y1="92.82" x2="138.534" y2="108.031" gradientTransform="matrix(1 .00436 .00436 -1 9.12 116.745)"><stop offset="0" stop-color="#bb7c11"/><stop offset=".64" stop-color="#ffe597"/></linearGradient><path d="M148.9 9.6c.1-.2-.1-.3-.3-.1-1.2 1.5-4.6 6.4-4.7 12-.1 3.3 2.4 3.7 3.4 2.4 1.5-1.9-.2-5.6.1-8.9.2-1.1 1.1-4.3 1.5-5.4z" fill="url(#SVGID_00000124154117152553863220000017359325242175623064_)"/><linearGradient id="SVGID_00000142863905497697081310000003814892670262582189_" gradientUnits="userSpaceOnUse" x1="165.04" y1="94.89" x2="195.31" y2="94.89" gradientTransform="matrix(1 0 0 -1 0 118)"><stop offset=".09" stop-color="#ffe597"/><stop offset="1" stop-color="#bb7c11"/></linearGradient><path d="M178.8 9.3c-3.5-2.7-7.3-4.6-11.2-5.8-.9-.3-1.7-.5-2.6-.7 1 2.7 1.9 5.2 2.7 7.1 2.2 5.1 5.9 7.4 8 7.4 3.4 0 3-1.9 5.2-1.9 3.3 0 3.4 4.6 3.4 8.2 0 8.4-.6 10 .2 12.5 1.1 3.7 3.6 7.3 8 7.5 0 0 1.2.2 2.8-.1-.5-10.3-3.5-18.6-7.8-24.9-2.5-3.9-5.5-6.9-8.7-9.3z" fill="url(#SVGID_00000142863905497697081310000003814892670262582189_)"/></g></g></svg>